<mxfile host="app.diagrams.net" agent="Mozilla/5.0 (Windows NT 10.0; Win64; x64) AppleWebKit/537.36 (KHTML, like Gecko) Chrome/109.0.0.0 Safari/537.36" version="24.8.2">
  <diagram name="PÃ¡gina-1" id="dPz2vsCViEHl_CIeuSDT">
    <mxGraphModel dx="880" dy="479" grid="1" gridSize="10" guides="1" tooltips="1" connect="1" arrows="1" fold="1" page="1" pageScale="1" pageWidth="827" pageHeight="1169" math="0" shadow="0">
      <root>
        <mxCell id="0" />
        <mxCell id="1" parent="0" />
        <mxCell id="aVbnDWJRICx461BSVT17-1" value="Supervisor" style="shape=umlActor;verticalLabelPosition=bottom;verticalAlign=top;html=1;outlineConnect=0;" vertex="1" parent="1">
          <mxGeometry x="140" y="195" width="60" height="120" as="geometry" />
        </mxCell>
        <mxCell id="aVbnDWJRICx461BSVT17-2" value="Usuario" style="shape=umlActor;verticalLabelPosition=bottom;verticalAlign=top;html=1;outlineConnect=0;" vertex="1" parent="1">
          <mxGeometry x="600" y="195" width="60" height="120" as="geometry" />
        </mxCell>
        <mxCell id="aVbnDWJRICx461BSVT17-4" value="&lt;p style=&quot;line-height: 120%;&quot;&gt;&lt;br&gt;&lt;/p&gt;" style="rounded=0;whiteSpace=wrap;html=1;direction=south;align=center;" vertex="1" parent="1">
          <mxGeometry x="260" y="50" width="270" height="410" as="geometry" />
        </mxCell>
        <mxCell id="aVbnDWJRICx461BSVT17-5" value="Bebederos de agua en el municipio de zarzal" style="rounded=0;whiteSpace=wrap;html=1;" vertex="1" parent="1">
          <mxGeometry x="260" y="50" width="270" height="50" as="geometry" />
        </mxCell>
        <mxCell id="aVbnDWJRICx461BSVT17-6" value="Instalar bebederos" style="ellipse;whiteSpace=wrap;html=1;" vertex="1" parent="1">
          <mxGeometry x="330" y="115" width="130" height="55" as="geometry" />
        </mxCell>
        <mxCell id="aVbnDWJRICx461BSVT17-7" value="" style="endArrow=classic;html=1;rounded=0;exitX=1;exitY=0.3333333333333333;exitDx=0;exitDy=0;exitPerimeter=0;" edge="1" parent="1" source="aVbnDWJRICx461BSVT17-1">
          <mxGeometry width="50" height="50" relative="1" as="geometry">
            <mxPoint x="280" y="200" as="sourcePoint" />
            <mxPoint x="330" y="150" as="targetPoint" />
            <Array as="points" />
          </mxGeometry>
        </mxCell>
        <mxCell id="aVbnDWJRICx461BSVT17-8" value="Agua potable" style="ellipse;whiteSpace=wrap;html=1;" vertex="1" parent="1">
          <mxGeometry x="325" y="180" width="140" height="50" as="geometry" />
        </mxCell>
        <mxCell id="aVbnDWJRICx461BSVT17-9" value="" style="endArrow=classic;html=1;rounded=0;" edge="1" parent="1" source="aVbnDWJRICx461BSVT17-1">
          <mxGeometry width="50" height="50" relative="1" as="geometry">
            <mxPoint x="275" y="260" as="sourcePoint" />
            <mxPoint x="325" y="210" as="targetPoint" />
          </mxGeometry>
        </mxCell>
        <mxCell id="aVbnDWJRICx461BSVT17-10" value="Beber agua&amp;nbsp;" style="ellipse;whiteSpace=wrap;html=1;" vertex="1" parent="1">
          <mxGeometry x="323.75" y="250" width="140" height="50" as="geometry" />
        </mxCell>
        <mxCell id="aVbnDWJRICx461BSVT17-11" value="" style="endArrow=classic;html=1;rounded=0;entryX=1;entryY=0.5;entryDx=0;entryDy=0;exitX=0;exitY=0.3333333333333333;exitDx=0;exitDy=0;exitPerimeter=0;" edge="1" parent="1" source="aVbnDWJRICx461BSVT17-2" target="aVbnDWJRICx461BSVT17-10">
          <mxGeometry width="50" height="50" relative="1" as="geometry">
            <mxPoint x="520" y="240" as="sourcePoint" />
            <mxPoint x="570" y="190" as="targetPoint" />
          </mxGeometry>
        </mxCell>
        <mxCell id="aVbnDWJRICx461BSVT17-12" value="Utilizar bebedero" style="ellipse;whiteSpace=wrap;html=1;" vertex="1" parent="1">
          <mxGeometry x="325" y="310" width="142.5" height="50" as="geometry" />
        </mxCell>
        <mxCell id="aVbnDWJRICx461BSVT17-13" value="" style="endArrow=classic;html=1;rounded=0;entryX=1;entryY=0.5;entryDx=0;entryDy=0;" edge="1" parent="1" source="aVbnDWJRICx461BSVT17-2" target="aVbnDWJRICx461BSVT17-12">
          <mxGeometry width="50" height="50" relative="1" as="geometry">
            <mxPoint x="420" y="390" as="sourcePoint" />
            <mxPoint x="470" y="340" as="targetPoint" />
          </mxGeometry>
        </mxCell>
        <mxCell id="aVbnDWJRICx461BSVT17-14" value="Dirigirse a un lugar publico" style="ellipse;whiteSpace=wrap;html=1;" vertex="1" parent="1">
          <mxGeometry x="326.25" y="380" width="140" height="50" as="geometry" />
        </mxCell>
        <mxCell id="aVbnDWJRICx461BSVT17-15" value="" style="endArrow=classic;html=1;rounded=0;" edge="1" parent="1" source="aVbnDWJRICx461BSVT17-2">
          <mxGeometry width="50" height="50" relative="1" as="geometry">
            <mxPoint x="417.5" y="460" as="sourcePoint" />
            <mxPoint x="467.5" y="410" as="targetPoint" />
          </mxGeometry>
        </mxCell>
      </root>
    </mxGraphModel>
  </diagram>
</mxfile>
